solid zone0
  facet normal -4.13471e-12 3.7371e-12 -1
    outer loop
       vertex 0.0281435 0.00694516 0
       vertex 0.0251223 0.00360252 0
       vertex 0.0246672 0.00354462 1.66533e-15
    endloop
  endfacet
  facet normal 2.86817e-12 -3.42179e-12 -1
    outer loop
       vertex 0.0241049 0.00355998 0
       vertex 0.0281435 0.00694516 0
       vertex 0.0246672 0.00354462 1.66533e-15
    endloop
  endfacet
  facet normal -0.0273059 -0.999627 -0
    outer loop
       vertex 0.0241049 0.00355998 1
       vertex 0.0241049 0.00355998 0
       vertex 0.0246672 0.00354462 1.66533e-15
    endloop
  endfacet
  facet normal -0.0273059 -0.999627 -0
    outer loop
       vertex 0.0246672 0.00354462 1
       vertex 0.0241049 0.00355998 1
       vertex 0.0246672 0.00354462 1.66533e-15
    endloop
  endfacet
  facet normal 0.126207 -0.992004 0
    outer loop
       vertex 0.0251223 0.00360252 0
       vertex 0.0246672 0.00354462 1
       vertex 0.0246672 0.00354462 1.66533e-15
    endloop
  endfacet
  facet normal 0.126207 -0.992004 0
    outer loop
       vertex 0.0251223 0.00360252 0
       vertex 0.0251223 0.00360252 1
       vertex 0.0246672 0.00354462 1
    endloop
  endfacet
  facet normal 0 0 1
    outer loop
       vertex 0.0281435 0.00694516 1
       vertex 0.0241049 0.00355998 1
       vertex 0.0246672 0.00354462 1
    endloop
  endfacet
  facet normal 0 -0 1
    outer loop
       vertex 0.0251223 0.00360252 1
       vertex 0.0281435 0.00694516 1
       vertex 0.0246672 0.00354462 1
    endloop
  endfacet
  facet normal 0 0 -1
    outer loop
       vertex 0.023379 0.00368883 0
       vertex 0.0281435 0.00694516 0
       vertex 0.0241049 0.00355998 0
    endloop
  endfacet
  facet normal -0.174772 -0.984609 -0
    outer loop
       vertex 0.023379 0.00368883 1
       vertex 0.023379 0.00368883 0
       vertex 0.0241049 0.00355998 0
    endloop
  endfacet
  facet normal -0.174772 -0.984609 -0
    outer loop
       vertex 0.0241049 0.00355998 1
       vertex 0.023379 0.00368883 1
       vertex 0.0241049 0.00355998 0
    endloop
  endfacet
  facet normal 0 0 1
    outer loop
       vertex 0.0281435 0.00694516 1
       vertex 0.023379 0.00368883 1
       vertex 0.0241049 0.00355998 1
    endloop
  endfacet
  facet normal 5.48339e-12 -4.95608e-12 -1
    outer loop
       vertex 0.0281435 0.00694516 0
       vertex 0.0255378 0.00372621 1.66533e-15
       vertex 0.0251223 0.00360252 0
    endloop
  endfacet
  facet normal 0.285316 -0.958434 0
    outer loop
       vertex 0.0255378 0.00372621 1.66533e-15
       vertex 0.0251223 0.00360252 1
       vertex 0.0251223 0.00360252 0
    endloop
  endfacet
  facet normal 0.285316 -0.958434 0
    outer loop
       vertex 0.0255378 0.00372621 1.66533e-15
       vertex 0.0255378 0.00372621 1
       vertex 0.0251223 0.00360252 1
    endloop
  endfacet
  facet normal 0 -0 1
    outer loop
       vertex 0.0255378 0.00372621 1
       vertex 0.0281435 0.00694516 1
       vertex 0.0251223 0.00360252 1
    endloop
  endfacet
  facet normal 0 0 -1
    outer loop
       vertex 0.0222522 0.00406699 0
       vertex 0.0281435 0.00694516 0
       vertex 0.023379 0.00368883 0
    endloop
  endfacet
  facet normal -0.318166 -0.948035 -0
    outer loop
       vertex 0.0222522 0.00406699 1
       vertex 0.0222522 0.00406699 0
       vertex 0.023379 0.00368883 0
    endloop
  endfacet
  facet normal -0.318166 -0.948035 -0
    outer loop
       vertex 0.023379 0.00368883 1
       vertex 0.0222522 0.00406699 1
       vertex 0.023379 0.00368883 0
    endloop
  endfacet
  facet normal 0 0 1
    outer loop
       vertex 0.0281435 0.00694516 1
       vertex 0.0222522 0.00406699 1
       vertex 0.023379 0.00368883 1
    endloop
  endfacet
  facet normal 4.24423e-13 -8.60917e-13 -1
    outer loop
       vertex 0.0281435 0.00694516 0
       vertex 0.02592 0.00391463 1.66533e-15
       vertex 0.0255378 0.00372621 1.66533e-15
    endloop
  endfacet
  facet normal 0.442176 -0.896928 0
    outer loop
       vertex 0.02592 0.00391463 1.66533e-15
       vertex 0.0255378 0.00372621 1
       vertex 0.0255378 0.00372621 1.66533e-15
    endloop
  endfacet
  facet normal 0.442176 -0.896928 0
    outer loop
       vertex 0.02592 0.00391463 1.66533e-15
       vertex 0.02592 0.00391463 1
       vertex 0.0255378 0.00372621 1
    endloop
  endfacet
  facet normal 0 -0 1
    outer loop
       vertex 0.02592 0.00391463 1
       vertex 0.0281435 0.00694516 1
       vertex 0.0255378 0.00372621 1
    endloop
  endfacet
  facet normal 1.58129e-12 -1.70971e-12 -1
    outer loop
       vertex 0.0281435 0.00694516 0
       vertex 0.0262853 0.00417132 1.80411e-15
       vertex 0.02592 0.00391463 1.66533e-15
    endloop
  endfacet
  facet normal 0.574935 -0.818199 0
    outer loop
       vertex 0.0262853 0.00417132 1.80411e-15
       vertex 0.02592 0.00391463 1
       vertex 0.02592 0.00391463 1.66533e-15
    endloop
  endfacet
  facet normal 0.574935 -0.818199 0
    outer loop
       vertex 0.0262853 0.00417132 1.80411e-15
       vertex 0.0262853 0.00417132 1
       vertex 0.02592 0.00391463 1
    endloop
  endfacet
  facet normal 0 -0 1
    outer loop
       vertex 0.0262853 0.00417132 1
       vertex 0.0281435 0.00694516 1
       vertex 0.02592 0.00391463 1
    endloop
  endfacet
  facet normal -3.76482e-13 7.70618e-13 -1
    outer loop
       vertex 0.0201021 0.0051776 1.66533e-15
       vertex 0.0281435 0.00694516 0
       vertex 0.0222522 0.00406699 0
    endloop
  endfacet
  facet normal -0.45893 -0.888472 -0
    outer loop
       vertex 0.0201021 0.0051776 1
       vertex 0.0201021 0.0051776 1.66533e-15
       vertex 0.0222522 0.00406699 0
    endloop
  endfacet
  facet normal -0.45893 -0.888472 -0
    outer loop
       vertex 0.0222522 0.00406699 1
       vertex 0.0201021 0.0051776 1
       vertex 0.0222522 0.00406699 0
    endloop
  endfacet
  facet normal 0 0 1
    outer loop
       vertex 0.0281435 0.00694516 1
       vertex 0.0201021 0.0051776 1
       vertex 0.0222522 0.00406699 1
    endloop
  endfacet
  facet normal 8.08934e-12 -8.3714e-12 -1
    outer loop
       vertex 0.0273264 0.00539285 0
       vertex 0.0267513 0.00462162 1.80411e-15
       vertex 0.0262853 0.00417132 1.80411e-15
    endloop
  endfacet
  facet normal -4.53164e-12 2.38535e-12 -1
    outer loop
       vertex 0.0281435 0.00694516 0
       vertex 0.0273264 0.00539285 0
       vertex 0.0262853 0.00417132 1.80411e-15
    endloop
  endfacet
  facet normal 0.694888 -0.719118 0
    outer loop
       vertex 0.0267513 0.00462162 1.80411e-15
       vertex 0.0262853 0.00417132 1
       vertex 0.0262853 0.00417132 1.80411e-15
    endloop
  endfacet
  facet normal 0.694888 -0.719118 0
    outer loop
       vertex 0.0267513 0.00462162 1.80411e-15
       vertex 0.0267513 0.00462162 1
       vertex 0.0262853 0.00417132 1
    endloop
  endfacet
  facet normal 0 -0 1
    outer loop
       vertex 0.0273264 0.00539285 1
       vertex 0.0281435 0.00694516 1
       vertex 0.0262853 0.00417132 1
    endloop
  endfacet
  facet normal 0 -0 1
    outer loop
       vertex 0.0267513 0.00462162 1
       vertex 0.0273264 0.00539285 1
       vertex 0.0262853 0.00417132 1
    endloop
  endfacet
  facet normal 0.801655 -0.597786 0
    outer loop
       vertex 0.0273264 0.00539285 0
       vertex 0.0267513 0.00462162 1
       vertex 0.0267513 0.00462162 1.80411e-15
    endloop
  endfacet
  facet normal 0.801655 -0.597786 0
    outer loop
       vertex 0.0273264 0.00539285 0
       vertex 0.0273264 0.00539285 1
       vertex 0.0267513 0.00462162 1
    endloop
  endfacet
  facet normal -2.26533e-13 8.84348e-14 -1
    outer loop
       vertex 0.0306196 0.0132879 0
       vertex 0.0281435 0.00694516 0
       vertex 0.0201021 0.0051776 1.66533e-15
    endloop
  endfacet
  facet normal -7.17301e-14 -1.12315e-13 -1
    outer loop
       vertex 0.0185976 0.00613845 1.66533e-15
       vertex 0.0306196 0.0132879 0
       vertex 0.0201021 0.0051776 1.66533e-15
    endloop
  endfacet
  facet normal -0.538247 -0.842787 -0
    outer loop
       vertex 0.0185976 0.00613845 1
       vertex 0.0185976 0.00613845 1.66533e-15
       vertex 0.0201021 0.0051776 1.66533e-15
    endloop
  endfacet
  facet normal -0.538247 -0.842787 -0
    outer loop
       vertex 0.0201021 0.0051776 1
       vertex 0.0185976 0.00613845 1
       vertex 0.0201021 0.0051776 1.66533e-15
    endloop
  endfacet
  facet normal 0 -0 1
    outer loop
       vertex 0.0281435 0.00694516 1
       vertex 0.0306196 0.0132879 1
       vertex 0.0201021 0.0051776 1
    endloop
  endfacet
  facet normal 0 0 1
    outer loop
       vertex 0.0306196 0.0132879 1
       vertex 0.0185976 0.00613845 1
       vertex 0.0201021 0.0051776 1
    endloop
  endfacet
  facet normal 0.884896 -0.465789 0
    outer loop
       vertex 0.0281435 0.00694516 0
       vertex 0.0273264 0.00539285 1
       vertex 0.0273264 0.00539285 0
    endloop
  endfacet
  facet normal 0.884896 -0.465789 0
    outer loop
       vertex 0.0281435 0.00694516 0
       vertex 0.0281435 0.00694516 1
       vertex 0.0273264 0.00539285 1
    endloop
  endfacet
  facet normal -3.9268e-14 -1.66901e-13 -1
    outer loop
       vertex 0.0167792 0.00739773 1.52656e-15
       vertex 0.0306196 0.0132879 0
       vertex 0.0185976 0.00613845 1.66533e-15
    endloop
  endfacet
  facet normal -0.569328 -0.82211 -0
    outer loop
       vertex 0.0167792 0.00739773 1
       vertex 0.0167792 0.00739773 1.52656e-15
       vertex 0.0185976 0.00613845 1.66533e-15
    endloop
  endfacet
  facet normal -0.569328 -0.82211 -0
    outer loop
       vertex 0.0185976 0.00613845 1
       vertex 0.0167792 0.00739773 1
       vertex 0.0185976 0.00613845 1.66533e-15
    endloop
  endfacet
  facet normal 0 0 1
    outer loop
       vertex 0.0306196 0.0132879 1
       vertex 0.0167792 0.00739773 1
       vertex 0.0185976 0.00613845 1
    endloop
  endfacet
  facet normal 0.931534 -0.363655 0
    outer loop
       vertex 0.0306196 0.0132879 0
       vertex 0.0281435 0.00694516 1
       vertex 0.0281435 0.00694516 0
    endloop
  endfacet
  facet normal 0.931534 -0.363655 0
    outer loop
       vertex 0.0306196 0.0132879 0
       vertex 0.0306196 0.0132879 1
       vertex 0.0281435 0.00694516 1
    endloop
  endfacet
  facet normal -7.7043e-14 -7.81393e-14 -1
    outer loop
       vertex 0.00925443 0.013041 1.66533e-15
       vertex 0.0306196 0.0132879 0
       vertex 0.0167792 0.00739773 1.52656e-15
    endloop
  endfacet
  facet normal -0.599979 -0.800016 -0
    outer loop
       vertex 0.00925443 0.013041 1
       vertex 0.00925443 0.013041 1.66533e-15
       vertex 0.0167792 0.00739773 1.52656e-15
    endloop
  endfacet
  facet normal -0.599979 -0.800016 -0
    outer loop
       vertex 0.0167792 0.00739773 1
       vertex 0.00925443 0.013041 1
       vertex 0.0167792 0.00739773 1.52656e-15
    endloop
  endfacet
  facet normal 0 0 1
    outer loop
       vertex 0.0306196 0.0132879 1
       vertex 0.00925443 0.013041 1
       vertex 0.0167792 0.00739773 1
    endloop
  endfacet
  facet normal -7.71205e-14 -7.14373e-14 -1
    outer loop
       vertex 0.00513477 0.0174884 1.66533e-15
       vertex 0.0306196 0.0132879 0
       vertex 0.00925443 0.013041 1.66533e-15
    endloop
  endfacet
  facet normal -0.733621 -0.679559 -0
    outer loop
       vertex 0.00513477 0.0174884 1
       vertex 0.00513477 0.0174884 1.66533e-15
       vertex 0.00925443 0.013041 1.66533e-15
    endloop
  endfacet
  facet normal -0.733621 -0.679559 -0
    outer loop
       vertex 0.00925443 0.013041 1
       vertex 0.00513477 0.0174884 1
       vertex 0.00925443 0.013041 1.66533e-15
    endloop
  endfacet
  facet normal 0 0 1
    outer loop
       vertex 0.0306196 0.0132879 1
       vertex 0.00513477 0.0174884 1
       vertex 0.00925443 0.013041 1
    endloop
  endfacet
  facet normal -7.34204e-14 -4.89888e-14 -1
    outer loop
       vertex 0.00513477 0.0174884 1.66533e-15
       vertex 0.00259627 0.0212929 1.66533e-15
       vertex 0.0306196 0.0132879 0
    endloop
  endfacet
  facet normal -6.83457e-14 -3.12235e-14 -1
    outer loop
       vertex 0.00259627 0.0212929 1.66533e-15
       vertex 0.00115652 0.0244444 1.66533e-15
       vertex 0.0306196 0.0132879 0
    endloop
  endfacet
  facet normal -6.29632e-14 -1.70089e-14 -1
    outer loop
       vertex 0.00115652 0.0244444 1.66533e-15
       vertex 0.000493731 0.0268979 1.66533e-15
       vertex 0.0306196 0.0132879 0
    endloop
  endfacet
  facet normal -4.42253e-14 2.44676e-14 -1
    outer loop
       vertex 0.000493731 0.0268979 1.66533e-15
       vertex 0.0327687 0.0171724 0
       vertex 0.0306196 0.0132879 0
    endloop
  endfacet
  facet normal 0.875012 -0.4841 0
    outer loop
       vertex 0.0327687 0.0171724 0
       vertex 0.0306196 0.0132879 1
       vertex 0.0306196 0.0132879 0
    endloop
  endfacet
  facet normal 0.875012 -0.4841 0
    outer loop
       vertex 0.0327687 0.0171724 0
       vertex 0.0327687 0.0171724 1
       vertex 0.0306196 0.0132879 1
    endloop
  endfacet
  facet normal 0 0 1
    outer loop
       vertex 0.00259627 0.0212929 1
       vertex 0.00513477 0.0174884 1
       vertex 0.0306196 0.0132879 1
    endloop
  endfacet
  facet normal 0 0 1
    outer loop
       vertex 0.00115652 0.0244444 1
       vertex 0.00259627 0.0212929 1
       vertex 0.0306196 0.0132879 1
    endloop
  endfacet
  facet normal 0 0 1
    outer loop
       vertex 0.0327687 0.0171724 1
       vertex 0.000245031 0.0293659 1
       vertex 0.0306196 0.0132879 1
    endloop
  endfacet
  facet normal 0 0 1
    outer loop
       vertex 0.000245031 0.0293659 1
       vertex 0.000493731 0.0268979 1
       vertex 0.0306196 0.0132879 1
    endloop
  endfacet
  facet normal 0 0 1
    outer loop
       vertex 0.000493731 0.0268979 1
       vertex 0.00115652 0.0244444 1
       vertex 0.0306196 0.0132879 1
    endloop
  endfacet
  facet normal 0 0 -1
    outer loop
       vertex 0.000708848 0.0333872 0
       vertex 0.00163214 0.0361674 0
       vertex 0.0327687 0.0171724 0
    endloop
  endfacet
  facet normal 0 0 -1
    outer loop
       vertex 0.000395775 0.0318171 0
       vertex 0.000708848 0.0333872 0
       vertex 0.0327687 0.0171724 0
    endloop
  endfacet
  facet normal 0 0 -1
    outer loop
       vertex 0.00163214 0.0361674 0
       vertex 0.00371709 0.0401837 0
       vertex 0.0327687 0.0171724 0
    endloop
  endfacet
  facet normal 1.48389e-13 1.8734e-13 -1
    outer loop
       vertex 0.00371709 0.0401837 0
       vertex 0.00786278 0.0457893 1.66533e-15
       vertex 0.0327687 0.0171724 0
    endloop
  endfacet
  facet normal -3.75807e-14 2.54866e-14 -1
    outer loop
       vertex 0.00786278 0.0457893 1.66533e-15
       vertex 0.0438239 0.0334736 0
       vertex 0.0327687 0.0171724 0
    endloop
  endfacet
  facet normal -2.62911e-13 -7.01263e-13 -1
    outer loop
       vertex 0.000493731 0.0268979 1.66533e-15
       vertex 0.000245031 0.0293659 0
       vertex 0.0327687 0.0171724 0
    endloop
  endfacet
  facet normal 0 0 -1
    outer loop
       vertex 0.000245031 0.0293659 0
       vertex 0.000395775 0.0318171 0
       vertex 0.0327687 0.0171724 0
    endloop
  endfacet
  facet normal 0.827625 -0.561281 0
    outer loop
       vertex 0.0438239 0.0334736 0
       vertex 0.0327687 0.0171724 1
       vertex 0.0327687 0.0171724 0
    endloop
  endfacet
  facet normal 0.827625 -0.561281 0
    outer loop
       vertex 0.0438239 0.0334736 0
       vertex 0.0438239 0.0334736 1
       vertex 0.0327687 0.0171724 1
    endloop
  endfacet
  facet normal 0 0 1
    outer loop
       vertex 0.00163214 0.0361674 1
       vertex 0.000708848 0.0333872 1
       vertex 0.0327687 0.0171724 1
    endloop
  endfacet
  facet normal 0 0 1
    outer loop
       vertex 0.00371709 0.0401837 1
       vertex 0.00163214 0.0361674 1
       vertex 0.0327687 0.0171724 1
    endloop
  endfacet
  facet normal 0 0 1
    outer loop
       vertex 0.0438239 0.0334736 1
       vertex 0.0117699 0.0500311 1
       vertex 0.0327687 0.0171724 1
    endloop
  endfacet
  facet normal 0 0 1
    outer loop
       vertex 0.0117699 0.0500311 1
       vertex 0.00786278 0.0457893 1
       vertex 0.0327687 0.0171724 1
    endloop
  endfacet
  facet normal 0 0 1
    outer loop
       vertex 0.00786278 0.0457893 1
       vertex 0.00371709 0.0401837 1
       vertex 0.0327687 0.0171724 1
    endloop
  endfacet
  facet normal 0 0 1
    outer loop
       vertex 0.000708848 0.0333872 1
       vertex 0.000395775 0.0318171 1
       vertex 0.0327687 0.0171724 1
    endloop
  endfacet
  facet normal 0 0 1
    outer loop
       vertex 0.000395775 0.0318171 1
       vertex 0.000245031 0.0293659 1
       vertex 0.0327687 0.0171724 1
    endloop
  endfacet
  facet normal -0.831832 -0.555028 -0
    outer loop
       vertex 0.00259627 0.0212929 1
       vertex 0.00259627 0.0212929 1.66533e-15
       vertex 0.00513477 0.0174884 1.66533e-15
    endloop
  endfacet
  facet normal -0.831832 -0.555028 -0
    outer loop
       vertex 0.00513477 0.0174884 1
       vertex 0.00259627 0.0212929 1
       vertex 0.00513477 0.0174884 1.66533e-15
    endloop
  endfacet
  facet normal -0.909577 -0.415536 -0
    outer loop
       vertex 0.00115652 0.0244444 1
       vertex 0.00115652 0.0244444 1.66533e-15
       vertex 0.00259627 0.0212929 1.66533e-15
    endloop
  endfacet
  facet normal -0.909577 -0.415536 -0
    outer loop
       vertex 0.00259627 0.0212929 1
       vertex 0.00115652 0.0244444 1
       vertex 0.00259627 0.0212929 1.66533e-15
    endloop
  endfacet
  facet normal -0.965395 -0.260792 -0
    outer loop
       vertex 0.000493731 0.0268979 1
       vertex 0.000493731 0.0268979 1.66533e-15
       vertex 0.00115652 0.0244444 1.66533e-15
    endloop
  endfacet
  facet normal -0.965395 -0.260792 -0
    outer loop
       vertex 0.00115652 0.0244444 1
       vertex 0.000493731 0.0268979 1
       vertex 0.00115652 0.0244444 1.66533e-15
    endloop
  endfacet
  facet normal -0.994961 -0.100262 -0
    outer loop
       vertex 0.000245031 0.0293659 1
       vertex 0.000245031 0.0293659 0
       vertex 0.000493731 0.0268979 1.66533e-15
    endloop
  endfacet
  facet normal -0.994961 -0.100262 -0
    outer loop
       vertex 0.000493731 0.0268979 1
       vertex 0.000245031 0.0293659 1
       vertex 0.000493731 0.0268979 1.66533e-15
    endloop
  endfacet
  facet normal -0.998114 0.0613821 0
    outer loop
       vertex 0.000395775 0.0318171 1
       vertex 0.000395775 0.0318171 0
       vertex 0.000245031 0.0293659 0
    endloop
  endfacet
  facet normal -0.998114 0.0613821 0
    outer loop
       vertex 0.000245031 0.0293659 1
       vertex 0.000395775 0.0318171 1
       vertex 0.000245031 0.0293659 0
    endloop
  endfacet
  facet normal -0.980694 0.195547 0
    outer loop
       vertex 0.000395775 0.0318171 1
       vertex 0.000708848 0.0333872 1
       vertex 0.000395775 0.0318171 0
    endloop
  endfacet
  facet normal -0.980694 0.195547 0
    outer loop
       vertex 0.000708848 0.0333872 1
       vertex 0.000708848 0.0333872 0
       vertex 0.000395775 0.0318171 0
    endloop
  endfacet
  facet normal -0.949035 0.31517 0
    outer loop
       vertex 0.00163214 0.0361674 1
       vertex 0.00163214 0.0361674 0
       vertex 0.000708848 0.0333872 0
    endloop
  endfacet
  facet normal -0.949035 0.31517 0
    outer loop
       vertex 0.000708848 0.0333872 1
       vertex 0.00163214 0.0361674 1
       vertex 0.000708848 0.0333872 0
    endloop
  endfacet
  facet normal 6.50728e-14 3.78445e-14 -1
    outer loop
       vertex 0.026369 0.0634869 0
       vertex 0.0587046 0.0518911 1.66533e-15
       vertex 0.0438239 0.0334736 0
    endloop
  endfacet
  facet normal -3.5204e-14 3.24264e-14 -1
    outer loop
       vertex 0.00786278 0.0457893 1.66533e-15
       vertex 0.0117699 0.0500311 1.66533e-15
       vertex 0.0438239 0.0334736 0
    endloop
  endfacet
  facet normal -7.42635e-14 -4.31896e-14 -1
    outer loop
       vertex 0.0117699 0.0500311 1.66533e-15
       vertex 0.026369 0.0634869 0
       vertex 0.0438239 0.0334736 0
    endloop
  endfacet
  facet normal 0.777837 -0.628466 0
    outer loop
       vertex 0.0587046 0.0518911 1.66533e-15
       vertex 0.0438239 0.0334736 1
       vertex 0.0438239 0.0334736 0
    endloop
  endfacet
  facet normal 0.777837 -0.628466 0
    outer loop
       vertex 0.0587046 0.0518911 1.66533e-15
       vertex 0.0587046 0.0518911 1
       vertex 0.0438239 0.0334736 1
    endloop
  endfacet
  facet normal 0 0 1
    outer loop
       vertex 0.0587046 0.0518911 1
       vertex 0.026369 0.0634869 1
       vertex 0.0438239 0.0334736 1
    endloop
  endfacet
  facet normal 0 0 1
    outer loop
       vertex 0.026369 0.0634869 1
       vertex 0.0117699 0.0500311 1
       vertex 0.0438239 0.0334736 1
    endloop
  endfacet
  facet normal -0.887536 0.460739 0
    outer loop
       vertex 0.00371709 0.0401837 1
       vertex 0.00371709 0.0401837 0
       vertex 0.00163214 0.0361674 0
    endloop
  endfacet
  facet normal -0.887536 0.460739 0
    outer loop
       vertex 0.00163214 0.0361674 1
       vertex 0.00371709 0.0401837 1
       vertex 0.00163214 0.0361674 0
    endloop
  endfacet
  facet normal -0.80401 0.594616 0
    outer loop
       vertex 0.00786278 0.0457893 1
       vertex 0.00786278 0.0457893 1.66533e-15
       vertex 0.00371709 0.0401837 0
    endloop
  endfacet
  facet normal -0.80401 0.594616 0
    outer loop
       vertex 0.00371709 0.0401837 1
       vertex 0.00786278 0.0457893 1
       vertex 0.00371709 0.0401837 0
    endloop
  endfacet
  facet normal -0.735528 0.677494 0
    outer loop
       vertex 0.0117699 0.0500311 1
       vertex 0.0117699 0.0500311 1.66533e-15
       vertex 0.00786278 0.0457893 1.66533e-15
    endloop
  endfacet
  facet normal -0.735528 0.677494 0
    outer loop
       vertex 0.00786278 0.0457893 1
       vertex 0.0117699 0.0500311 1
       vertex 0.00786278 0.0457893 1.66533e-15
    endloop
  endfacet
  facet normal -0.677728 0.735313 0
    outer loop
       vertex 0.026369 0.0634869 1
       vertex 0.026369 0.0634869 0
       vertex 0.0117699 0.0500311 1.66533e-15
    endloop
  endfacet
  facet normal -0.677728 0.735313 0
    outer loop
       vertex 0.0117699 0.0500311 1
       vertex 0.026369 0.0634869 1
       vertex 0.0117699 0.0500311 1.66533e-15
    endloop
  endfacet
  facet normal 3.46974e-14 -4.68592e-14 -1
    outer loop
       vertex 0.026369 0.0634869 0
       vertex 0.0415085 0.0746971 0
       vertex 0.0587046 0.0518911 1.66533e-15
    endloop
  endfacet
  facet normal 4.17117e-14 -4.15702e-14 -1
    outer loop
       vertex 0.0415085 0.0746971 0
       vertex 0.076331 0.0695775 1.66533e-15
       vertex 0.0587046 0.0518911 1.66533e-15
    endloop
  endfacet
  facet normal 0.708307 -0.705904 0
    outer loop
       vertex 0.076331 0.0695775 1.66533e-15
       vertex 0.0587046 0.0518911 1
       vertex 0.0587046 0.0518911 1.66533e-15
    endloop
  endfacet
  facet normal 0.708307 -0.705904 0
    outer loop
       vertex 0.076331 0.0695775 1.66533e-15
       vertex 0.076331 0.0695775 1
       vertex 0.0587046 0.0518911 1
    endloop
  endfacet
  facet normal 0 0 1
    outer loop
       vertex 0.076331 0.0695775 1
       vertex 0.0585116 0.0843407 1
       vertex 0.0587046 0.0518911 1
    endloop
  endfacet
  facet normal 0 0 1
    outer loop
       vertex 0.0585116 0.0843407 1
       vertex 0.0415085 0.0746971 1
       vertex 0.0587046 0.0518911 1
    endloop
  endfacet
  facet normal 0 0 1
    outer loop
       vertex 0.0415085 0.0746971 1
       vertex 0.026369 0.0634869 1
       vertex 0.0587046 0.0518911 1
    endloop
  endfacet
  facet normal -0.595082 0.803665 0
    outer loop
       vertex 0.0415085 0.0746971 1
       vertex 0.0415085 0.0746971 0
       vertex 0.026369 0.0634869 0
    endloop
  endfacet
  facet normal -0.595082 0.803665 0
    outer loop
       vertex 0.026369 0.0634869 1
       vertex 0.0415085 0.0746971 1
       vertex 0.026369 0.0634869 0
    endloop
  endfacet
  facet normal 3.79787e-14 -6.6962e-14 -1
    outer loop
       vertex 0.0415085 0.0746971 0
       vertex 0.0585116 0.0843407 0
       vertex 0.076331 0.0695775 1.66533e-15
    endloop
  endfacet
  facet normal 4.6145e-14 -5.71051e-14 -1
    outer loop
       vertex 0.0585116 0.0843407 0
       vertex 0.0956876 0.085219 1.66533e-15
       vertex 0.076331 0.0695775 1.66533e-15
    endloop
  endfacet
  facet normal 0.628515 -0.777797 0
    outer loop
       vertex 0.0956876 0.085219 1.66533e-15
       vertex 0.076331 0.0695775 1
       vertex 0.076331 0.0695775 1.66533e-15
    endloop
  endfacet
  facet normal 0.628515 -0.777797 0
    outer loop
       vertex 0.0956876 0.085219 1.66533e-15
       vertex 0.0956876 0.085219 1
       vertex 0.076331 0.0695775 1
    endloop
  endfacet
  facet normal 0 0 1
    outer loop
       vertex 0.081807 0.0946739 1
       vertex 0.0585116 0.0843407 1
       vertex 0.076331 0.0695775 1
    endloop
  endfacet
  facet normal 0 0 1
    outer loop
       vertex 0.0956876 0.085219 1
       vertex 0.081807 0.0946739 1
       vertex 0.076331 0.0695775 1
    endloop
  endfacet
  facet normal -0.493342 0.869835 0
    outer loop
       vertex 0.0585116 0.0843407 1
       vertex 0.0585116 0.0843407 0
       vertex 0.0415085 0.0746971 0
    endloop
  endfacet
  facet normal -0.493342 0.869835 0
    outer loop
       vertex 0.0415085 0.0746971 1
       vertex 0.0585116 0.0843407 1
       vertex 0.0415085 0.0746971 0
    endloop
  endfacet
  facet normal 4.32942e-14 6.35596e-14 -1
    outer loop
       vertex 0.081807 0.0946739 1.66533e-15
       vertex 0.0956876 0.085219 1.66533e-15
       vertex 0.0585116 0.0843407 0
    endloop
  endfacet
  facet normal -0.405473 0.914107 0
    outer loop
       vertex 0.081807 0.0946739 1
       vertex 0.081807 0.0946739 1.66533e-15
       vertex 0.0585116 0.0843407 0
    endloop
  endfacet
  facet normal -0.405473 0.914107 0
    outer loop
       vertex 0.0585116 0.0843407 1
       vertex 0.081807 0.0946739 1
       vertex 0.0585116 0.0843407 0
    endloop
  endfacet
  facet normal -4.09796e-14 -6.01615e-14 -1
    outer loop
       vertex 0.081807 0.0946739 1.66533e-15
       vertex 0.116563 0.0986805 0
       vertex 0.0956876 0.085219 1.66533e-15
    endloop
  endfacet
  facet normal 0.541942 -0.840416 0
    outer loop
       vertex 0.116563 0.0986805 0
       vertex 0.0956876 0.085219 1
       vertex 0.0956876 0.085219 1.66533e-15
    endloop
  endfacet
  facet normal 0.541942 -0.840416 0
    outer loop
       vertex 0.116563 0.0986805 0
       vertex 0.116563 0.0986805 1
       vertex 0.0956876 0.085219 1
    endloop
  endfacet
  facet normal 0 0 1
    outer loop
       vertex 0.110659 0.104805 1
       vertex 0.081807 0.0946739 1
       vertex 0.0956876 0.085219 1
    endloop
  endfacet
  facet normal 0 0 1
    outer loop
       vertex 0.116563 0.0986805 1
       vertex 0.110659 0.104805 1
       vertex 0.0956876 0.085219 1
    endloop
  endfacet
  facet normal -7.13333e-14 2.03148e-13 -1
    outer loop
       vertex 0.110659 0.104805 1.66533e-15
       vertex 0.116563 0.0986805 0
       vertex 0.081807 0.0946739 1.66533e-15
    endloop
  endfacet
  facet normal -0.331309 0.943522 0
    outer loop
       vertex 0.110659 0.104805 1
       vertex 0.110659 0.104805 1.66533e-15
       vertex 0.081807 0.0946739 1.66533e-15
    endloop
  endfacet
  facet normal -0.331309 0.943522 0
    outer loop
       vertex 0.081807 0.0946739 1
       vertex 0.110659 0.104805 1
       vertex 0.081807 0.0946739 1.66533e-15
    endloop
  endfacet
  facet normal -4.14742e-14 2.31932e-13 -1
    outer loop
       vertex 0.110659 0.104805 1.66533e-15
       vertex 0.138743 0.109827 1.66533e-15
       vertex 0.116563 0.0986805 0
    endloop
  endfacet
  facet normal 0.449033 -0.893515 0
    outer loop
       vertex 0.138743 0.109827 1.66533e-15
       vertex 0.116563 0.0986805 1
       vertex 0.116563 0.0986805 0
    endloop
  endfacet
  facet normal 0.449033 -0.893515 0
    outer loop
       vertex 0.138743 0.109827 1.66533e-15
       vertex 0.138743 0.109827 1
       vertex 0.116563 0.0986805 1
    endloop
  endfacet
  facet normal 0 0 1
    outer loop
       vertex 0.138743 0.109827 1
       vertex 0.110659 0.104805 1
       vertex 0.116563 0.0986805 1
    endloop
  endfacet
  facet normal 0 0 -1
    outer loop
       vertex 0.14895 0.115778 1.66533e-15
       vertex 0.138743 0.109827 1.66533e-15
       vertex 0.110659 0.104805 1.66533e-15
    endloop
  endfacet
  facet normal -0.27548 0.961307 0
    outer loop
       vertex 0.14895 0.115778 1
       vertex 0.14895 0.115778 1.66533e-15
       vertex 0.110659 0.104805 1.66533e-15
    endloop
  endfacet
  facet normal -0.27548 0.961307 0
    outer loop
       vertex 0.110659 0.104805 1
       vertex 0.14895 0.115778 1
       vertex 0.110659 0.104805 1.66533e-15
    endloop
  endfacet
  facet normal 0 -0 1
    outer loop
       vertex 0.138743 0.109827 1
       vertex 0.14895 0.115778 1
       vertex 0.110659 0.104805 1
    endloop
  endfacet
  facet normal -2.55352e-13 4.37974e-13 -1
    outer loop
       vertex 0.14895 0.115778 1.66533e-15
       vertex 0.158017 0.117262 0
       vertex 0.138743 0.109827 1.66533e-15
    endloop
  endfacet
  facet normal 0.359903 -0.93299 0
    outer loop
       vertex 0.158017 0.117262 0
       vertex 0.138743 0.109827 1
       vertex 0.138743 0.109827 1.66533e-15
    endloop
  endfacet
  facet normal 0.359903 -0.93299 0
    outer loop
       vertex 0.158017 0.117262 0
       vertex 0.158017 0.117262 1
       vertex 0.138743 0.109827 1
    endloop
  endfacet
  facet normal 0 0 1
    outer loop
       vertex 0.158017 0.117262 1
       vertex 0.14895 0.115778 1
       vertex 0.138743 0.109827 1
    endloop
  endfacet
  facet normal 0 0 -1
    outer loop
       vertex 0.168299 0.120619 1.66533e-15
       vertex 0.16408 0.119144 1.66533e-15
       vertex 0.14895 0.115778 1.66533e-15
    endloop
  endfacet
  facet normal -1.26833e-12 5.70107e-12 -1
    outer loop
       vertex 0.16408 0.119144 1.66533e-15
       vertex 0.160516 0.118059 0
       vertex 0.14895 0.115778 1.66533e-15
    endloop
  endfacet
  facet normal -3.77287e-13 1.18298e-12 -1
    outer loop
       vertex 0.160516 0.118059 0
       vertex 0.158017 0.117262 0
       vertex 0.14895 0.115778 1.66533e-15
    endloop
  endfacet
  facet normal -0.242713 0.970098 0
    outer loop
       vertex 0.168299 0.120619 1
       vertex 0.168299 0.120619 1.66533e-15
       vertex 0.14895 0.115778 1.66533e-15
    endloop
  endfacet
  facet normal -0.242713 0.970098 0
    outer loop
       vertex 0.14895 0.115778 1
       vertex 0.168299 0.120619 1
       vertex 0.14895 0.115778 1.66533e-15
    endloop
  endfacet
  facet normal 0 -0 1
    outer loop
       vertex 0.16408 0.119144 1
       vertex 0.168299 0.120619 1
       vertex 0.14895 0.115778 1
    endloop
  endfacet
  facet normal 0 -0 1
    outer loop
       vertex 0.160516 0.118059 1
       vertex 0.16408 0.119144 1
       vertex 0.14895 0.115778 1
    endloop
  endfacet
  facet normal 0 -0 1
    outer loop
       vertex 0.158017 0.117262 1
       vertex 0.160516 0.118059 1
       vertex 0.14895 0.115778 1
    endloop
  endfacet
  facet normal 0.303851 -0.952719 0
    outer loop
       vertex 0.160516 0.118059 0
       vertex 0.158017 0.117262 1
       vertex 0.158017 0.117262 0
    endloop
  endfacet
  facet normal 0.303851 -0.952719 0
    outer loop
       vertex 0.160516 0.118059 0
       vertex 0.160516 0.118059 1
       vertex 0.158017 0.117262 1
    endloop
  endfacet
  facet normal 0.291236 -0.956651 0
    outer loop
       vertex 0.16408 0.119144 1.66533e-15
       vertex 0.160516 0.118059 1
       vertex 0.160516 0.118059 0
    endloop
  endfacet
  facet normal 0.291236 -0.956651 0
    outer loop
       vertex 0.16408 0.119144 1.66533e-15
       vertex 0.16408 0.119144 1
       vertex 0.160516 0.118059 1
    endloop
  endfacet
  facet normal 0 -0 -1
    outer loop
       vertex 0.168299 0.120619 1.66533e-15
       vertex 0.169354 0.120773 1.66533e-15
       vertex 0.16408 0.119144 1.66533e-15
    endloop
  endfacet
  facet normal 0.295116 -0.955462 0
    outer loop
       vertex 0.169354 0.120773 1.66533e-15
       vertex 0.16408 0.119144 1
       vertex 0.16408 0.119144 1.66533e-15
    endloop
  endfacet
  facet normal 0.295116 -0.955462 0
    outer loop
       vertex 0.169354 0.120773 1.66533e-15
       vertex 0.169354 0.120773 1
       vertex 0.16408 0.119144 1
    endloop
  endfacet
  facet normal 0 0 1
    outer loop
       vertex 0.169354 0.120773 1
       vertex 0.168299 0.120619 1
       vertex 0.16408 0.119144 1
    endloop
  endfacet
  facet normal 4.98148e-12 -3.41277e-11 -1
    outer loop
       vertex 0.169328 0.120818 0
       vertex 0.169354 0.120773 1.66533e-15
       vertex 0.168299 0.120619 1.66533e-15
    endloop
  endfacet
  facet normal -0.18987 0.981809 0
    outer loop
       vertex 0.169328 0.120818 1
       vertex 0.169328 0.120818 0
       vertex 0.168299 0.120619 1.66533e-15
    endloop
  endfacet
  facet normal -0.18987 0.981809 0
    outer loop
       vertex 0.168299 0.120619 1
       vertex 0.169328 0.120818 1
       vertex 0.168299 0.120619 1.66533e-15
    endloop
  endfacet
  facet normal 0 0 1
    outer loop
       vertex 0.169354 0.120773 1
       vertex 0.169328 0.120818 1
       vertex 0.168299 0.120619 1
    endloop
  endfacet
  facet normal 1.37589e-11 -2.9056e-11 -1
    outer loop
       vertex 0.169328 0.120818 0
       vertex 0.169373 0.120782 1.66533e-15
       vertex 0.169354 0.120773 1.66533e-15
    endloop
  endfacet
  facet normal 0.427972 -0.903792 0
    outer loop
       vertex 0.169373 0.120782 1.66533e-15
       vertex 0.169354 0.120773 1
       vertex 0.169354 0.120773 1.66533e-15
    endloop
  endfacet
  facet normal 0.427972 -0.903792 0
    outer loop
       vertex 0.169373 0.120782 1.66533e-15
       vertex 0.169373 0.120782 1
       vertex 0.169354 0.120773 1
    endloop
  endfacet
  facet normal 0 0 1
    outer loop
       vertex 0.169356 0.12082 1
       vertex 0.169328 0.120818 1
       vertex 0.169354 0.120773 1
    endloop
  endfacet
  facet normal 0 0 1
    outer loop
       vertex 0.169373 0.120782 1
       vertex 0.169356 0.12082 1
       vertex 0.169354 0.120773 1
    endloop
  endfacet
  facet normal -1.66188e-12 2.90781e-12 -1
    outer loop
       vertex 0.169356 0.12082 1.80411e-15
       vertex 0.169401 0.120798 1.66533e-15
       vertex 0.169373 0.120782 1.66533e-15
    endloop
  endfacet
  facet normal 6.21913e-11 3.14782e-11 -1
    outer loop
       vertex 0.169328 0.120818 0
       vertex 0.169356 0.12082 1.80411e-15
       vertex 0.169373 0.120782 1.66533e-15
    endloop
  endfacet
  facet normal 0.496201 -0.868208 0
    outer loop
       vertex 0.169401 0.120798 1.66533e-15
       vertex 0.169373 0.120782 1
       vertex 0.169373 0.120782 1.66533e-15
    endloop
  endfacet
  facet normal 0.496201 -0.868208 0
    outer loop
       vertex 0.169401 0.120798 1.66533e-15
       vertex 0.169401 0.120798 1
       vertex 0.169373 0.120782 1
    endloop
  endfacet
  facet normal 0 0 1
    outer loop
       vertex 0.169401 0.120798 1
       vertex 0.169356 0.12082 1
       vertex 0.169373 0.120782 1
    endloop
  endfacet
  facet normal -3.55812e-12 -9.69711e-13 -1
    outer loop
       vertex 0.169356 0.12082 1.80411e-15
       vertex 0.169395 0.12082 1.66533e-15
       vertex 0.169401 0.120798 1.66533e-15
    endloop
  endfacet
  facet normal 0 0 1
    outer loop
       vertex 0.169395 0.12082 1
       vertex 0.169356 0.12082 1
       vertex 0.169401 0.120798 1
    endloop
  endfacet
  facet normal 0.964811 0.262945 0
    outer loop
       vertex 0.169395 0.12082 1.66533e-15
       vertex 0.169401 0.120798 1
       vertex 0.169401 0.120798 1.66533e-15
    endloop
  endfacet
  facet normal 0.964811 0.262945 -0
    outer loop
       vertex 0.169395 0.12082 1.66533e-15
       vertex 0.169395 0.12082 1
       vertex 0.169401 0.120798 1
    endloop
  endfacet
  facet normal -0.0713414 0.997452 0
    outer loop
       vertex 0.169356 0.12082 1
       vertex 0.169356 0.12082 1.80411e-15
       vertex 0.169328 0.120818 0
    endloop
  endfacet
  facet normal -0.0713414 0.997452 0
    outer loop
       vertex 0.169328 0.120818 1
       vertex 0.169356 0.12082 1
       vertex 0.169328 0.120818 0
    endloop
  endfacet
  facet normal 0 1 0
    outer loop
       vertex 0.169395 0.12082 1
       vertex 0.169395 0.12082 1.66533e-15
       vertex 0.169356 0.12082 1.80411e-15
    endloop
  endfacet
  facet normal -0 1 0
    outer loop
       vertex 0.169356 0.12082 1
       vertex 0.169395 0.12082 1
       vertex 0.169356 0.12082 1.80411e-15
    endloop
  endfacet
  facet normal 3.33237e-15 -1.32586e-14 -1
    outer loop
       vertex 0.266896 0.142663 0
       vertex 0.307109 0.15277 0
       vertex 0.306633 0.04798 1.38778e-15
    endloop
  endfacet
  facet normal 2.71656e-14 -3.25612e-15 -1
    outer loop
       vertex 0.255685 0.0491301 0
       vertex 0.266896 0.142663 0
       vertex 0.306633 0.04798 1.38778e-15
    endloop
  endfacet
  facet normal 5.7605e-13 -1.58601e-14 -1
    outer loop
       vertex 0.307109 0.15277 0
       vertex 0.30929 0.153234 1.249e-15
       vertex 0.306633 0.04798 1.38778e-15
    endloop
  endfacet
  facet normal -2.45826e-14 -6.97971e-16 -1
    outer loop
       vertex 0.30929 0.153234 1.249e-15
       vertex 0.359853 0.161873 0
       vertex 0.306633 0.04798 1.38778e-15
    endloop
  endfacet
  facet normal -1.62941e-14 -4.57103e-15 -1
    outer loop
       vertex 0.359853 0.161873 0
       vertex 0.391411 0.0493797 0
       vertex 0.306633 0.04798 1.38778e-15
    endloop
  endfacet
  facet normal -0.0225682 -0.999745 -0
    outer loop
       vertex 0.255685 0.0491301 1
       vertex 0.255685 0.0491301 0
       vertex 0.306633 0.04798 1.38778e-15
    endloop
  endfacet
  facet normal -0.0225682 -0.999745 -0
    outer loop
       vertex 0.306633 0.04798 1
       vertex 0.255685 0.0491301 1
       vertex 0.306633 0.04798 1.38778e-15
    endloop
  endfacet
  facet normal 0.0165079 -0.999864 0
    outer loop
       vertex 0.391411 0.0493797 0
       vertex 0.306633 0.04798 1
       vertex 0.306633 0.04798 1.38778e-15
    endloop
  endfacet
  facet normal 0.0165079 -0.999864 0
    outer loop
       vertex 0.391411 0.0493797 0
       vertex 0.391411 0.0493797 1
       vertex 0.306633 0.04798 1
    endloop
  endfacet
  facet normal 0 0 1
    outer loop
       vertex 0.307109 0.15277 1
       vertex 0.255685 0.0491301 1
       vertex 0.306633 0.04798 1
    endloop
  endfacet
  facet normal 0 0 1
    outer loop
       vertex 0.391411 0.0493797 1
       vertex 0.359853 0.161873 1
       vertex 0.306633 0.04798 1
    endloop
  endfacet
  facet normal 0 0 1
    outer loop
       vertex 0.359853 0.161873 1
       vertex 0.30929 0.153234 1
       vertex 0.306633 0.04798 1
    endloop
  endfacet
  facet normal 0 0 1
    outer loop
       vertex 0.30929 0.153234 1
       vertex 0.307109 0.15277 1
       vertex 0.306633 0.04798 1
    endloop
  endfacet
  facet normal 0 0 -1
    outer loop
       vertex 0.232577 0.13118 0
       vertex 0.266896 0.142663 0
       vertex 0.255685 0.0491301 0
    endloop
  endfacet
  facet normal -3.31006e-14 -9.32224e-15 -1
    outer loop
       vertex 0.217257 0.0515963 1.249e-15
       vertex 0.232577 0.13118 0
       vertex 0.255685 0.0491301 0
    endloop
  endfacet
  facet normal -0.0640453 -0.997947 -0
    outer loop
       vertex 0.217257 0.0515963 1
       vertex 0.217257 0.0515963 1.249e-15
       vertex 0.255685 0.0491301 0
    endloop
  endfacet
  facet normal -0.0640453 -0.997947 -0
    outer loop
       vertex 0.255685 0.0491301 1
       vertex 0.217257 0.0515963 1
       vertex 0.255685 0.0491301 0
    endloop
  endfacet
  facet normal 0 0 1
    outer loop
       vertex 0.307109 0.15277 1
       vertex 0.266896 0.142663 1
       vertex 0.255685 0.0491301 1
    endloop
  endfacet
  facet normal 0 0 1
    outer loop
       vertex 0.266896 0.142663 1
       vertex 0.232577 0.13118 1
       vertex 0.255685 0.0491301 1
    endloop
  endfacet
  facet normal 0 0 1
    outer loop
       vertex 0.232577 0.13118 1
       vertex 0.217257 0.0515963 1
       vertex 0.255685 0.0491301 1
    endloop
  endfacet
  facet normal -3.90458e-16 1.06808e-14 -1
    outer loop
       vertex 0.464896 0.169005 1.249e-15
       vertex 0.638734 0.0584211 0
       vertex 0.391411 0.0493797 0
    endloop
  endfacet
  facet normal 0 0 -1
    outer loop
       vertex 0.359853 0.161873 0
       vertex 0.40679 0.166403 0
       vertex 0.391411 0.0493797 0
    endloop
  endfacet
  facet normal 2.16224e-14 -2.84159e-15 -1
    outer loop
       vertex 0.40679 0.166403 0
       vertex 0.464896 0.169005 1.249e-15
       vertex 0.391411 0.0493797 0
    endloop
  endfacet
  facet normal 0.0365326 -0.999332 0
    outer loop
       vertex 0.638734 0.0584211 0
       vertex 0.391411 0.0493797 1
       vertex 0.391411 0.0493797 0
    endloop
  endfacet
  facet normal 0.0365326 -0.999332 0
    outer loop
       vertex 0.638734 0.0584211 0
       vertex 0.638734 0.0584211 1
       vertex 0.391411 0.0493797 1
    endloop
  endfacet
  facet normal 0 0 1
    outer loop
       vertex 0.542032 0.169767 1
       vertex 0.464896 0.169005 1
       vertex 0.391411 0.0493797 1
    endloop
  endfacet
  facet normal 0 0 1
    outer loop
       vertex 0.638734 0.0584211 1
       vertex 0.542032 0.169767 1
       vertex 0.391411 0.0493797 1
    endloop
  endfacet
  facet normal 0 0 1
    outer loop
       vertex 0.464896 0.169005 1
       vertex 0.40679 0.166403 1
       vertex 0.391411 0.0493797 1
    endloop
  endfacet
  facet normal 0 0 1
    outer loop
       vertex 0.40679 0.166403 1
       vertex 0.359853 0.161873 1
       vertex 0.391411 0.0493797 1
    endloop
  endfacet
  facet normal -2.58376e-15 -1.51968e-14 -1
    outer loop
       vertex 0.18653 0.0568205 1.249e-15
       vertex 0.232577 0.13118 0
       vertex 0.217257 0.0515963 1.249e-15
    endloop
  endfacet
  facet normal -0.167614 -0.985853 -0
    outer loop
       vertex 0.18653 0.0568205 1
       vertex 0.18653 0.0568205 1.249e-15
       vertex 0.217257 0.0515963 1.249e-15
    endloop
  endfacet
  facet normal -0.167614 -0.985853 -0
    outer loop
       vertex 0.217257 0.0515963 1
       vertex 0.18653 0.0568205 1
       vertex 0.217257 0.0515963 1.249e-15
    endloop
  endfacet
  facet normal 0 0 1
    outer loop
       vertex 0.232577 0.13118 1
       vertex 0.18653 0.0568205 1
       vertex 0.217257 0.0515963 1
    endloop
  endfacet
  facet normal -4.23123e-15 -1.41766e-14 -1
    outer loop
       vertex 0.178511 0.0592139 1.249e-15
       vertex 0.232577 0.13118 0
       vertex 0.18653 0.0568205 1.249e-15
    endloop
  endfacet
  facet normal -0.285999 -0.95823 -0
    outer loop
       vertex 0.178511 0.0592139 1
       vertex 0.178511 0.0592139 1.249e-15
       vertex 0.18653 0.0568205 1.249e-15
    endloop
  endfacet
  facet normal -0.285999 -0.95823 -0
    outer loop
       vertex 0.18653 0.0568205 1
       vertex 0.178511 0.0592139 1
       vertex 0.18653 0.0568205 1.249e-15
    endloop
  endfacet
  facet normal 0 0 1
    outer loop
       vertex 0.232577 0.13118 1
       vertex 0.178511 0.0592139 1
       vertex 0.18653 0.0568205 1
    endloop
  endfacet
  facet normal -1.09868e-16 1.11219e-14 -1
    outer loop
       vertex 0.464896 0.169005 1.249e-15
       vertex 0.542032 0.169767 1.249e-15
       vertex 0.638734 0.0584211 0
    endloop
  endfacet
  facet normal -1.71204e-14 -3.65151e-15 -1
    outer loop
       vertex 0.542032 0.169767 1.249e-15
       vertex 0.615519 0.167267 0
       vertex 0.638734 0.0584211 0
    endloop
  endfacet
  facet normal 2.43185e-14 5.18675e-15 -1
    outer loop
       vertex 0.615519 0.167267 0
       vertex 0.689694 0.0602966 1.249e-15
       vertex 0.638734 0.0584211 0
    endloop
  endfacet
  facet normal 0.0367785 -0.999323 0
    outer loop
       vertex 0.689694 0.0602966 1.249e-15
       vertex 0.638734 0.0584211 1
       vertex 0.638734 0.0584211 0
    endloop
  endfacet
  facet normal 0.0367785 -0.999323 0
    outer loop
       vertex 0.689694 0.0602966 1.249e-15
       vertex 0.689694 0.0602966 1
       vertex 0.638734 0.0584211 1
    endloop
  endfacet
  facet normal 0 -0 1
    outer loop
       vertex 0.689694 0.0602966 1
       vertex 0.696731 0.161132 1
       vertex 0.638734 0.0584211 1
    endloop
  endfacet
  facet normal 0 0 1
    outer loop
       vertex 0.615519 0.167267 1
       vertex 0.542032 0.169767 1
       vertex 0.638734 0.0584211 1
    endloop
  endfacet
  facet normal 0 0 1
    outer loop
       vertex 0.696731 0.161132 1
       vertex 0.615519 0.167267 1
       vertex 0.638734 0.0584211 1
    endloop
  endfacet
  facet normal 1.84866e-13 -1.56239e-13 -1
    outer loop
       vertex 0.173704 0.0615203 0
       vertex 0.232577 0.13118 0
       vertex 0.178511 0.0592139 1.249e-15
    endloop
  endfacet
  facet normal -0.432585 -0.901593 -0
    outer loop
       vertex 0.173704 0.0615203 1
       vertex 0.173704 0.0615203 0
       vertex 0.178511 0.0592139 1.249e-15
    endloop
  endfacet
  facet normal -0.432585 -0.901593 -0
    outer loop
       vertex 0.178511 0.0592139 1
       vertex 0.173704 0.0615203 1
       vertex 0.178511 0.0592139 1.249e-15
    endloop
  endfacet
  facet normal 0 0 1
    outer loop
       vertex 0.232577 0.13118 1
       vertex 0.173704 0.0615203 1
       vertex 0.178511 0.0592139 1
    endloop
  endfacet
  facet normal 0 -0 -1
    outer loop
       vertex 0.782852 0.151356 1.249e-15
       vertex 0.875534 0.137499 1.249e-15
       vertex 0.689694 0.0602966 1.249e-15
    endloop
  endfacet
  facet normal 0 -0 -1
    outer loop
       vertex 1.09392 0.0947278 1.249e-15
       vertex 1.16214 0.0776457 1.249e-15
       vertex 0.689694 0.0602966 1.249e-15
    endloop
  endfacet
  facet normal 3.21649e-15 -3.77619e-14 -1
    outer loop
       vertex 0.98209 0.118278 0
       vertex 1.09392 0.0947278 1.249e-15
       vertex 0.689694 0.0602966 1.249e-15
    endloop
  endfacet
  facet normal -8.17278e-15 1.96733e-14 -1
    outer loop
       vertex 0.875534 0.137499 1.249e-15
       vertex 0.98209 0.118278 0
       vertex 0.689694 0.0602966 1.249e-15
    endloop
  endfacet
  facet normal 1.71022e-14 1.82793e-16 -1
    outer loop
       vertex 0.615519 0.167267 0
       vertex 0.696731 0.161132 1.38778e-15
       vertex 0.689694 0.0602966 1.249e-15
    endloop
  endfacet
  facet normal -1.44379e-15 1.47706e-15 -1
    outer loop
       vertex 0.696731 0.161132 1.38778e-15
       vertex 0.782852 0.151356 1.249e-15
       vertex 0.689694 0.0602966 1.249e-15
    endloop
  endfacet
  facet normal 0.0366971 -0.999326 0
    outer loop
       vertex 1.16214 0.0776457 1.249e-15
       vertex 0.689694 0.0602966 1
       vertex 0.689694 0.0602966 1.249e-15
    endloop
  endfacet
  facet normal 0.0366971 -0.999326 0
    outer loop
       vertex 1.16214 0.0776457 1.249e-15
       vertex 1.16214 0.0776457 1
       vertex 0.689694 0.0602966 1
    endloop
  endfacet
  facet normal 0 0 1
    outer loop
       vertex 1.16214 0.0776457 1
       vertex 1.09392 0.0947278 1
       vertex 0.689694 0.0602966 1
    endloop
  endfacet
  facet normal 0 0 1
    outer loop
       vertex 1.09392 0.0947278 1
       vertex 0.98209 0.118278 1
       vertex 0.689694 0.0602966 1
    endloop
  endfacet
  facet normal 0 0 1
    outer loop
       vertex 0.98209 0.118278 1
       vertex 0.875534 0.137499 1
       vertex 0.689694 0.0602966 1
    endloop
  endfacet
  facet normal 0 0 1
    outer loop
       vertex 0.875534 0.137499 1
       vertex 0.782852 0.151356 1
       vertex 0.689694 0.0602966 1
    endloop
  endfacet
  facet normal 0 0 1
    outer loop
       vertex 0.782852 0.151356 1
       vertex 0.696731 0.161132 1
       vertex 0.689694 0.0602966 1
    endloop
  endfacet
  facet normal -1.78507e-13 1.50866e-13 -1
    outer loop
       vertex 0.169324 0.0646167 1.249e-15
       vertex 0.232577 0.13118 0
       vertex 0.173704 0.0615203 0
    endloop
  endfacet
  facet normal -0.577261 -0.81656 -0
    outer loop
       vertex 0.169324 0.0646167 1
       vertex 0.169324 0.0646167 1.249e-15
       vertex 0.173704 0.0615203 0
    endloop
  endfacet
  facet normal -0.577261 -0.81656 -0
    outer loop
       vertex 0.173704 0.0615203 1
       vertex 0.169324 0.0646167 1
       vertex 0.173704 0.0615203 0
    endloop
  endfacet
  facet normal 0 0 1
    outer loop
       vertex 0.232577 0.13118 1
       vertex 0.169324 0.0646167 1
       vertex 0.173704 0.0615203 1
    endloop
  endfacet
  facet normal 1.9288e-13 -2.02052e-13 -1
    outer loop
       vertex 0.166125 0.0677445 0
       vertex 0.232577 0.13118 0
       vertex 0.169324 0.0646167 1.249e-15
    endloop
  endfacet
  facet normal -0.699105 -0.715019 -0
    outer loop
       vertex 0.166125 0.0677445 1
       vertex 0.166125 0.0677445 0
       vertex 0.169324 0.0646167 1.249e-15
    endloop
  endfacet
  facet normal -0.699105 -0.715019 -0
    outer loop
       vertex 0.169324 0.0646167 1
       vertex 0.166125 0.0677445 1
       vertex 0.169324 0.0646167 1.249e-15
    endloop
  endfacet
  facet normal 0 0 1
    outer loop
       vertex 0.232577 0.13118 1
       vertex 0.166125 0.0677445 1
       vertex 0.169324 0.0646167 1
    endloop
  endfacet
  facet normal -2.58733e-13 2.71036e-13 -1
    outer loop
       vertex 0.164128 0.0704464 1.249e-15
       vertex 0.232577 0.13118 0
       vertex 0.166125 0.0677445 0
    endloop
  endfacet
  facet normal -0.804184 -0.59438 -0
    outer loop
       vertex 0.164128 0.0704464 1
       vertex 0.164128 0.0704464 1.249e-15
       vertex 0.166125 0.0677445 0
    endloop
  endfacet
  facet normal -0.804184 -0.59438 -0
    outer loop
       vertex 0.166125 0.0677445 1
       vertex 0.164128 0.0704464 1
       vertex 0.166125 0.0677445 0
    endloop
  endfacet
  facet normal 0 0 1
    outer loop
       vertex 0.232577 0.13118 1
       vertex 0.164128 0.0704464 1
       vertex 0.166125 0.0677445 1
    endloop
  endfacet
  facet normal -1.25268e-14 -6.44706e-15 -1
    outer loop
       vertex 0.16294 0.0727547 1.249e-15
       vertex 0.232577 0.13118 0
       vertex 0.164128 0.0704464 1.249e-15
    endloop
  endfacet
  facet normal -0.889152 -0.457613 -0
    outer loop
       vertex 0.16294 0.0727547 1
       vertex 0.16294 0.0727547 1.249e-15
       vertex 0.164128 0.0704464 1.249e-15
    endloop
  endfacet
  facet normal -0.889152 -0.457613 -0
    outer loop
       vertex 0.164128 0.0704464 1
       vertex 0.16294 0.0727547 1
       vertex 0.164128 0.0704464 1.249e-15
    endloop
  endfacet
  facet normal 0 0 1
    outer loop
       vertex 0.232577 0.13118 1
       vertex 0.16294 0.0727547 1
       vertex 0.164128 0.0704464 1
    endloop
  endfacet
  facet normal 1.81466e-13 -2.37666e-13 -1
    outer loop
       vertex 0.162765 0.073205 1.11022e-15
       vertex 0.232577 0.13118 0
       vertex 0.16294 0.0727547 1.249e-15
    endloop
  endfacet
  facet normal -0.932076 -0.362263 -0
    outer loop
       vertex 0.162765 0.073205 1
       vertex 0.162765 0.073205 1.11022e-15
       vertex 0.16294 0.0727547 1.249e-15
    endloop
  endfacet
  facet normal -0.932076 -0.362263 -0
    outer loop
       vertex 0.16294 0.0727547 1
       vertex 0.162765 0.073205 1
       vertex 0.16294 0.0727547 1.249e-15
    endloop
  endfacet
  facet normal 0 0 1
    outer loop
       vertex 0.232577 0.13118 1
       vertex 0.162765 0.073205 1
       vertex 0.16294 0.0727547 1
    endloop
  endfacet
  facet normal 2.0082e-13 -1.56338e-13 -1
    outer loop
       vertex 0.177972 0.0998401 0
       vertex 0.192682 0.111634 1.11022e-15
       vertex 0.162765 0.073205 1.11022e-15
    endloop
  endfacet
  facet normal 1.43197e-14 -1.11479e-14 -1
    outer loop
       vertex 0.192682 0.111634 1.11022e-15
       vertex 0.210069 0.121519 1.249e-15
       vertex 0.162765 0.073205 1.11022e-15
    endloop
  endfacet
  facet normal -9.78431e-14 9.86702e-14 -1
    outer loop
       vertex 0.210069 0.121519 1.249e-15
       vertex 0.232577 0.13118 0
       vertex 0.162765 0.073205 1.11022e-15
    endloop
  endfacet
  facet normal -4.92112e-14 1.80872e-14 -1
    outer loop
       vertex 0.162546 0.080282 1.249e-15
       vertex 0.163356 0.0824858 1.249e-15
       vertex 0.162765 0.073205 1.11022e-15
    endloop
  endfacet
  facet normal -4.60747e-13 -4.99853e-14 -1
    outer loop
       vertex 0.16227 0.0749913 1.249e-15
       vertex 0.162077 0.0767702 1.249e-15
       vertex 0.162765 0.073205 1.11022e-15
    endloop
  endfacet
  facet normal -3.18507e-12 -5.75705e-13 -1
    outer loop
       vertex 0.162077 0.0767702 1.249e-15
       vertex 0.162162 0.0784695 0
       vertex 0.162765 0.073205 1.11022e-15
    endloop
  endfacet
  facet normal 2.7573e-12 1.04932e-13 -1
    outer loop
       vertex 0.162162 0.0784695 0
       vertex 0.162546 0.080282 1.249e-15
       vertex 0.162765 0.073205 1.11022e-15
    endloop
  endfacet
  facet normal -9.03313e-13 7.24762e-14 -1
    outer loop
       vertex 0.163356 0.0824858 1.249e-15
       vertex 0.164978 0.0854686 0
       vertex 0.162765 0.073205 1.11022e-15
    endloop
  endfacet
  facet normal 6.08356e-13 -2.0031e-13 -1
    outer loop
       vertex 0.164978 0.0854686 0
       vertex 0.168615 0.0902791 1.249e-15
       vertex 0.162765 0.073205 1.11022e-15
    endloop
  endfacet
  facet normal -2.18168e-13 8.28777e-14 -1
    outer loop
       vertex 0.168615 0.0902791 1.249e-15
       vertex 0.177972 0.0998401 0
       vertex 0.162765 0.073205 1.11022e-15
    endloop
  endfacet
  facet normal -0.963684 -0.267045 -0
    outer loop
       vertex 0.16227 0.0749913 1
       vertex 0.16227 0.0749913 1.249e-15
       vertex 0.162765 0.073205 1.11022e-15
    endloop
  endfacet
  facet normal -0.963684 -0.267045 -0
    outer loop
       vertex 0.162765 0.073205 1
       vertex 0.16227 0.0749913 1
       vertex 0.162765 0.073205 1.11022e-15
    endloop
  endfacet
  facet normal 0 0 1
    outer loop
       vertex 0.210069 0.121519 1
       vertex 0.192682 0.111634 1
       vertex 0.162765 0.073205 1
    endloop
  endfacet
  facet normal 0 0 1
    outer loop
       vertex 0.192682 0.111634 1
       vertex 0.177972 0.0998401 1
       vertex 0.162765 0.073205 1
    endloop
  endfacet
  facet normal 0 0 1
    outer loop
       vertex 0.177972 0.0998401 1
       vertex 0.168615 0.0902791 1
       vertex 0.162765 0.073205 1
    endloop
  endfacet
  facet normal 0 0 1
    outer loop
       vertex 0.168615 0.0902791 1
       vertex 0.164978 0.0854686 1
       vertex 0.162765 0.073205 1
    endloop
  endfacet
  facet normal 0 0 1
    outer loop
       vertex 0.164978 0.0854686 1
       vertex 0.163356 0.0824858 1
       vertex 0.162765 0.073205 1
    endloop
  endfacet
  facet normal 0 0 1
    outer loop
       vertex 0.163356 0.0824858 1
       vertex 0.162546 0.080282 1
       vertex 0.162765 0.073205 1
    endloop
  endfacet
  facet normal 0 0 1
    outer loop
       vertex 0.162546 0.080282 1
       vertex 0.162162 0.0784695 1
       vertex 0.162765 0.073205 1
    endloop
  endfacet
  facet normal 0 0 1
    outer loop
       vertex 0.162162 0.0784695 1
       vertex 0.162077 0.0767702 1
       vertex 0.162765 0.073205 1
    endloop
  endfacet
  facet normal 0 0 1
    outer loop
       vertex 0.162077 0.0767702 1
       vertex 0.16227 0.0749913 1
       vertex 0.162765 0.073205 1
    endloop
  endfacet
  facet normal 0 0 1
    outer loop
       vertex 0.232577 0.13118 1
       vertex 0.210069 0.121519 1
       vertex 0.162765 0.073205 1
    endloop
  endfacet
  facet normal -0.994167 -0.107855 -0
    outer loop
       vertex 0.162077 0.0767702 1
       vertex 0.162077 0.0767702 1.249e-15
       vertex 0.16227 0.0749913 1.249e-15
    endloop
  endfacet
  facet normal -0.994167 -0.107855 -0
    outer loop
       vertex 0.16227 0.0749913 1
       vertex 0.162077 0.0767702 1
       vertex 0.16227 0.0749913 1.249e-15
    endloop
  endfacet
  facet normal -0.998752 0.0499539 0
    outer loop
       vertex 0.162162 0.0784695 1
       vertex 0.162162 0.0784695 0
       vertex 0.162077 0.0767702 1.249e-15
    endloop
  endfacet
  facet normal -0.998752 0.0499539 0
    outer loop
       vertex 0.162077 0.0767702 1
       vertex 0.162162 0.0784695 1
       vertex 0.162077 0.0767702 1.249e-15
    endloop
  endfacet
  facet normal 0.335002 -0.942217 0
    outer loop
       vertex 1.16223 0.0776777 0
       vertex 1.16214 0.0776457 1
       vertex 1.16214 0.0776457 1.249e-15
    endloop
  endfacet
  facet normal 0 0 -1
    outer loop
       vertex 1.09392 0.0947278 1.249e-15
       vertex 1.16214 0.0788443 1.249e-15
       vertex 1.16214 0.0776457 1.249e-15
    endloop
  endfacet
  facet normal -2.07974e-12 -4.16531e-13 -1
    outer loop
       vertex 1.16258 0.0784472 0
       vertex 1.1626 0.0783475 0
       vertex 1.16214 0.0776457 1.249e-15
    endloop
  endfacet
  facet normal -2.36394e-12 -2.30251e-13 -1
    outer loop
       vertex 1.1626 0.0783475 0
       vertex 1.16261 0.078245 0
       vertex 1.16214 0.0776457 1.249e-15
    endloop
  endfacet
  facet normal -3.03443e-12 2.95557e-13 -1
    outer loop
       vertex 1.16261 0.078245 0
       vertex 1.1626 0.0781425 0
       vertex 1.16214 0.0776457 1.249e-15
    endloop
  endfacet
  facet normal -1.38773e-11 -0 -1
    outer loop
       vertex 1.16214 0.0788443 1.249e-15
       vertex 1.16223 0.0788123 0
       vertex 1.16214 0.0776457 1.249e-15
    endloop
  endfacet
  facet normal -5.47301e-13 -1.02841e-12 -1
    outer loop
       vertex 1.16223 0.0788123 0
       vertex 1.16232 0.0787644 0
       vertex 1.16214 0.0776457 1.249e-15
    endloop
  endfacet
  facet normal -6.95334e-13 -1.00459e-12 -1
    outer loop
       vertex 1.16232 0.0787644 0
       vertex 1.16241 0.0787021 0
       vertex 1.16214 0.0776457 1.249e-15
    endloop
  endfacet
  facet normal -9.95934e-13 -9.2776e-13 -1
    outer loop
       vertex 1.16241 0.0787021 0
       vertex 1.16248 0.078627 0
       vertex 1.16214 0.0776457 1.249e-15
    endloop
  endfacet
  facet normal -1.36864e-12 -7.98635e-13 -1
    outer loop
       vertex 1.16248 0.078627 0
       vertex 1.16253 0.0785412 0
       vertex 1.16214 0.0776457 1.249e-15
    endloop
  endfacet
  facet normal -1.44174e-12 -7.66796e-13 -1
    outer loop
       vertex 1.16253 0.0785412 0
       vertex 1.16258 0.0784472 0
       vertex 1.16214 0.0776457 1.249e-15
    endloop
  endfacet
  facet normal -3.46464e-12 6.93898e-13 -1
    outer loop
       vertex 1.1626 0.0781425 0
       vertex 1.16258 0.0780428 0
       vertex 1.16214 0.0776457 1.249e-15
    endloop
  endfacet
  facet normal -5.45792e-12 2.90267e-12 -1
    outer loop
       vertex 1.16258 0.0780428 0
       vertex 1.16253 0.0779488 0
       vertex 1.16214 0.0776457 1.249e-15
    endloop
  endfacet
  facet normal -2.28808e-11 2.53231e-11 -1
    outer loop
       vertex 1.16253 0.0779488 0
       vertex 1.16223 0.0776777 0
       vertex 1.16214 0.0776457 1.249e-15
    endloop
  endfacet
  facet normal 0.335002 -0.942217 0
    outer loop
       vertex 1.16223 0.0776777 0
       vertex 1.16223 0.0776777 1
       vertex 1.16214 0.0776457 1
    endloop
  endfacet
  facet normal 0 0 1
    outer loop
       vertex 1.16214 0.0788443 1
       vertex 1.09392 0.0947278 1
       vertex 1.16214 0.0776457 1
    endloop
  endfacet
  facet normal 0 0 1
    outer loop
       vertex 1.16223 0.0776777 1
       vertex 1.16214 0.0788443 1
       vertex 1.16214 0.0776457 1
    endloop
  endfacet
  facet normal 0.469832 -0.882756 0
    outer loop
       vertex 1.16232 0.0777256 0
       vertex 1.16223 0.0776777 1
       vertex 1.16223 0.0776777 0
    endloop
  endfacet
  facet normal 0 0 -1
    outer loop
       vertex 1.16253 0.0779488 0
       vertex 1.16232 0.0777256 0
       vertex 1.16223 0.0776777 0
    endloop
  endfacet
  facet normal 0.469832 -0.882756 0
    outer loop
       vertex 1.16232 0.0777256 0
       vertex 1.16232 0.0777256 1
       vertex 1.16223 0.0776777 1
    endloop
  endfacet
  facet normal 0 0 1
    outer loop
       vertex 1.16232 0.0777256 1
       vertex 1.16214 0.0788443 1
       vertex 1.16223 0.0776777 1
    endloop
  endfacet
  facet normal 0.569126 -0.82225 0
    outer loop
       vertex 1.16241 0.0777879 0
       vertex 1.16232 0.0777256 1
       vertex 1.16232 0.0777256 0
    endloop
  endfacet
  facet normal 0 0 -1
    outer loop
       vertex 1.16253 0.0779488 0
       vertex 1.16241 0.0777879 0
       vertex 1.16232 0.0777256 0
    endloop
  endfacet
  facet normal 0.569126 -0.82225 0
    outer loop
       vertex 1.16241 0.0777879 0
       vertex 1.16241 0.0777879 1
       vertex 1.16232 0.0777256 1
    endloop
  endfacet
  facet normal 0 0 1
    outer loop
       vertex 1.16241 0.0777879 1
       vertex 1.16214 0.0788443 1
       vertex 1.16232 0.0777256 1
    endloop
  endfacet
  facet normal 0.731707 -0.68162 0
    outer loop
       vertex 1.16248 0.077863 0
       vertex 1.16241 0.0777879 1
       vertex 1.16241 0.0777879 0
    endloop
  endfacet
  facet normal 0 0 -1
    outer loop
       vertex 1.16253 0.0779488 0
       vertex 1.16248 0.077863 0
       vertex 1.16241 0.0777879 0
    endloop
  endfacet
  facet normal 0.731707 -0.68162 0
    outer loop
       vertex 1.16248 0.077863 0
       vertex 1.16248 0.077863 1
       vertex 1.16241 0.0777879 1
    endloop
  endfacet
  facet normal 0 0 1
    outer loop
       vertex 1.16248 0.077863 1
       vertex 1.16214 0.0788443 1
       vertex 1.16241 0.0777879 1
    endloop
  endfacet
  facet normal 0.863696 -0.504014 0
    outer loop
       vertex 1.16253 0.0779488 0
       vertex 1.16248 0.077863 1
       vertex 1.16248 0.077863 0
    endloop
  endfacet
  facet normal 0.863696 -0.504014 0
    outer loop
       vertex 1.16253 0.0779488 0
       vertex 1.16253 0.0779488 1
       vertex 1.16248 0.077863 1
    endloop
  endfacet
  facet normal 0 0 1
    outer loop
       vertex 1.16253 0.0779488 1
       vertex 1.16214 0.0788443 1
       vertex 1.16248 0.077863 1
    endloop
  endfacet
  facet normal 0.882904 -0.469553 0
    outer loop
       vertex 1.16258 0.0780428 0
       vertex 1.16253 0.0779488 1
       vertex 1.16253 0.0779488 0
    endloop
  endfacet
  facet normal 0.882904 -0.469553 0
    outer loop
       vertex 1.16258 0.0780428 0
       vertex 1.16258 0.0780428 1
       vertex 1.16253 0.0779488 1
    endloop
  endfacet
  facet normal 0 0 1
    outer loop
       vertex 1.16258 0.0780428 1
       vertex 1.16214 0.0788443 1
       vertex 1.16253 0.0779488 1
    endloop
  endfacet
  facet normal 0.980528 -0.19638 0
    outer loop
       vertex 1.1626 0.0781425 0
       vertex 1.16258 0.0780428 1
       vertex 1.16258 0.0780428 0
    endloop
  endfacet
  facet normal 0.980528 -0.19638 0
    outer loop
       vertex 1.1626 0.0781425 0
       vertex 1.1626 0.0781425 1
       vertex 1.16258 0.0780428 1
    endloop
  endfacet
  facet normal 0 0 1
    outer loop
       vertex 1.1626 0.0781425 1
       vertex 1.16214 0.0788443 1
       vertex 1.16258 0.0780428 1
    endloop
  endfacet
  facet normal 0.99529 -0.0969427 0
    outer loop
       vertex 1.16261 0.078245 0
       vertex 1.1626 0.0781425 1
       vertex 1.1626 0.0781425 0
    endloop
  endfacet
  facet normal 0.99529 -0.0969427 0
    outer loop
       vertex 1.16261 0.078245 0
       vertex 1.16261 0.078245 1
       vertex 1.1626 0.0781425 1
    endloop
  endfacet
  facet normal 0 0 1
    outer loop
       vertex 1.16261 0.078245 1
       vertex 1.16214 0.0788443 1
       vertex 1.1626 0.0781425 1
    endloop
  endfacet
  facet normal 0 0 1
    outer loop
       vertex 1.1626 0.0783475 1
       vertex 1.16214 0.0788443 1
       vertex 1.16261 0.078245 1
    endloop
  endfacet
  facet normal 0.99529 0.0969427 0
    outer loop
       vertex 1.1626 0.0783475 0
       vertex 1.16261 0.078245 1
       vertex 1.16261 0.078245 0
    endloop
  endfacet
  facet normal 0.99529 0.0969427 -0
    outer loop
       vertex 1.1626 0.0783475 0
       vertex 1.1626 0.0783475 1
       vertex 1.16261 0.078245 1
    endloop
  endfacet
  facet normal 0.980528 0.19638 0
    outer loop
       vertex 1.16258 0.0784472 0
       vertex 1.1626 0.0783475 1
       vertex 1.1626 0.0783475 0
    endloop
  endfacet
  facet normal 0.980528 0.19638 -0
    outer loop
       vertex 1.16258 0.0784472 0
       vertex 1.16258 0.0784472 1
       vertex 1.1626 0.0783475 1
    endloop
  endfacet
  facet normal 0 0 1
    outer loop
       vertex 1.16258 0.0784472 1
       vertex 1.16214 0.0788443 1
       vertex 1.1626 0.0783475 1
    endloop
  endfacet
  facet normal 0.882895 0.469571 0
    outer loop
       vertex 1.16253 0.0785412 0
       vertex 1.16258 0.0784472 1
       vertex 1.16258 0.0784472 0
    endloop
  endfacet
  facet normal 0.882895 0.469571 -0
    outer loop
       vertex 1.16253 0.0785412 0
       vertex 1.16253 0.0785412 1
       vertex 1.16258 0.0784472 1
    endloop
  endfacet
  facet normal 0 0 1
    outer loop
       vertex 1.16253 0.0785412 1
       vertex 1.16214 0.0788443 1
       vertex 1.16258 0.0784472 1
    endloop
  endfacet
  facet normal -0.978285 0.207263 0
    outer loop
       vertex 0.162546 0.080282 1
       vertex 0.162546 0.080282 1.249e-15
       vertex 0.162162 0.0784695 0
    endloop
  endfacet
  facet normal -0.978285 0.207263 0
    outer loop
       vertex 0.162162 0.0784695 1
       vertex 0.162546 0.080282 1
       vertex 0.162162 0.0784695 0
    endloop
  endfacet
  facet normal 0.863707 0.503993 0
    outer loop
       vertex 1.16248 0.078627 0
       vertex 1.16253 0.0785412 1
       vertex 1.16253 0.0785412 0
    endloop
  endfacet
  facet normal 0.863707 0.503993 -0
    outer loop
       vertex 1.16248 0.078627 0
       vertex 1.16248 0.078627 1
       vertex 1.16253 0.0785412 1
    endloop
  endfacet
  facet normal 0 0 1
    outer loop
       vertex 1.16241 0.0787021 1
       vertex 1.16232 0.0787644 1
       vertex 1.16253 0.0785412 1
    endloop
  endfacet
  facet normal 0 0 1
    outer loop
       vertex 1.16248 0.078627 1
       vertex 1.16241 0.0787021 1
       vertex 1.16253 0.0785412 1
    endloop
  endfacet
  facet normal 0 0 1
    outer loop
       vertex 1.16223 0.0788123 1
       vertex 1.16214 0.0788443 1
       vertex 1.16253 0.0785412 1
    endloop
  endfacet
  facet normal 0 0 1
    outer loop
       vertex 1.16232 0.0787644 1
       vertex 1.16223 0.0788123 1
       vertex 1.16253 0.0785412 1
    endloop
  endfacet
  facet normal 0.731707 0.68162 0
    outer loop
       vertex 1.16241 0.0787021 0
       vertex 1.16248 0.078627 1
       vertex 1.16248 0.078627 0
    endloop
  endfacet
  facet normal 0.731707 0.68162 -0
    outer loop
       vertex 1.16241 0.0787021 0
       vertex 1.16241 0.0787021 1
       vertex 1.16248 0.078627 1
    endloop
  endfacet
  facet normal 0.569126 0.82225 0
    outer loop
       vertex 1.16232 0.0787644 0
       vertex 1.16241 0.0787021 1
       vertex 1.16241 0.0787021 0
    endloop
  endfacet
  facet normal 0.569126 0.82225 -0
    outer loop
       vertex 1.16232 0.0787644 0
       vertex 1.16232 0.0787644 1
       vertex 1.16241 0.0787021 1
    endloop
  endfacet
  facet normal 0.469796 0.882775 0
    outer loop
       vertex 1.16223 0.0788123 0
       vertex 1.16232 0.0787644 1
       vertex 1.16232 0.0787644 0
    endloop
  endfacet
  facet normal 0.469796 0.882775 -0
    outer loop
       vertex 1.16223 0.0788123 0
       vertex 1.16223 0.0788123 1
       vertex 1.16232 0.0787644 1
    endloop
  endfacet
  facet normal 0.335002 0.942217 0
    outer loop
       vertex 1.16214 0.0788443 1.249e-15
       vertex 1.16223 0.0788123 1
       vertex 1.16223 0.0788123 0
    endloop
  endfacet
  facet normal 0.335002 0.942217 -0
    outer loop
       vertex 1.16214 0.0788443 1.249e-15
       vertex 1.16214 0.0788443 1
       vertex 1.16223 0.0788123 1
    endloop
  endfacet
  facet normal 0.226763 0.97395 0
    outer loop
       vertex 1.09392 0.0947278 1.249e-15
       vertex 1.16214 0.0788443 1
       vertex 1.16214 0.0788443 1.249e-15
    endloop
  endfacet
  facet normal 0.226763 0.97395 -0
    outer loop
       vertex 1.09392 0.0947278 1.249e-15
       vertex 1.09392 0.0947278 1
       vertex 1.16214 0.0788443 1
    endloop
  endfacet
  facet normal -0.93861 0.344979 0
    outer loop
       vertex 0.163356 0.0824858 1
       vertex 0.163356 0.0824858 1.249e-15
       vertex 0.162546 0.080282 1.249e-15
    endloop
  endfacet
  facet normal -0.93861 0.344979 0
    outer loop
       vertex 0.162546 0.080282 1
       vertex 0.163356 0.0824858 1
       vertex 0.162546 0.080282 1.249e-15
    endloop
  endfacet
  facet normal -0.878511 0.477723 0
    outer loop
       vertex 0.164978 0.0854686 1
       vertex 0.164978 0.0854686 0
       vertex 0.163356 0.0824858 1.249e-15
    endloop
  endfacet
  facet normal -0.878511 0.477723 0
    outer loop
       vertex 0.163356 0.0824858 1
       vertex 0.164978 0.0854686 1
       vertex 0.163356 0.0824858 1.249e-15
    endloop
  endfacet
  facet normal -0.797676 0.603086 0
    outer loop
       vertex 0.168615 0.0902791 1
       vertex 0.168615 0.0902791 1.249e-15
       vertex 0.164978 0.0854686 0
    endloop
  endfacet
  facet normal -0.797676 0.603086 0
    outer loop
       vertex 0.164978 0.0854686 1
       vertex 0.168615 0.0902791 1
       vertex 0.164978 0.0854686 0
    endloop
  endfacet
  facet normal -0.71469 0.699441 0
    outer loop
       vertex 0.177972 0.0998401 1
       vertex 0.177972 0.0998401 0
       vertex 0.168615 0.0902791 1.249e-15
    endloop
  endfacet
  facet normal -0.71469 0.699441 0
    outer loop
       vertex 0.168615 0.0902791 1
       vertex 0.177972 0.0998401 1
       vertex 0.168615 0.0902791 1.249e-15
    endloop
  endfacet
  facet normal 0.20607 0.978537 0
    outer loop
       vertex 0.98209 0.118278 0
       vertex 1.09392 0.0947278 1
       vertex 1.09392 0.0947278 1.249e-15
    endloop
  endfacet
  facet normal 0.20607 0.978537 -0
    outer loop
       vertex 0.98209 0.118278 0
       vertex 0.98209 0.118278 1
       vertex 1.09392 0.0947278 1
    endloop
  endfacet
  facet normal -0.625532 0.780198 0
    outer loop
       vertex 0.192682 0.111634 1
       vertex 0.192682 0.111634 1.11022e-15
       vertex 0.177972 0.0998401 0
    endloop
  endfacet
  facet normal -0.625532 0.780198 0
    outer loop
       vertex 0.177972 0.0998401 1
       vertex 0.192682 0.111634 1
       vertex 0.177972 0.0998401 0
    endloop
  endfacet
  facet normal -0.494237 0.869327 0
    outer loop
       vertex 0.210069 0.121519 1
       vertex 0.210069 0.121519 1.249e-15
       vertex 0.192682 0.111634 1.11022e-15
    endloop
  endfacet
  facet normal -0.494237 0.869327 0
    outer loop
       vertex 0.192682 0.111634 1
       vertex 0.210069 0.121519 1
       vertex 0.192682 0.111634 1.11022e-15
    endloop
  endfacet
  facet normal 0.177519 0.984117 0
    outer loop
       vertex 0.875534 0.137499 1.249e-15
       vertex 0.98209 0.118278 1
       vertex 0.98209 0.118278 0
    endloop
  endfacet
  facet normal 0.177519 0.984117 -0
    outer loop
       vertex 0.875534 0.137499 1.249e-15
       vertex 0.875534 0.137499 1
       vertex 0.98209 0.118278 1
    endloop
  endfacet
  facet normal -0.394427 0.918927 0
    outer loop
       vertex 0.232577 0.13118 1
       vertex 0.232577 0.13118 0
       vertex 0.210069 0.121519 1.249e-15
    endloop
  endfacet
  facet normal -0.394427 0.918927 0
    outer loop
       vertex 0.210069 0.121519 1
       vertex 0.232577 0.13118 1
       vertex 0.210069 0.121519 1.249e-15
    endloop
  endfacet
  facet normal -0.317305 0.948323 0
    outer loop
       vertex 0.266896 0.142663 1
       vertex 0.266896 0.142663 0
       vertex 0.232577 0.13118 0
    endloop
  endfacet
  facet normal -0.317305 0.948323 0
    outer loop
       vertex 0.232577 0.13118 1
       vertex 0.266896 0.142663 1
       vertex 0.232577 0.13118 0
    endloop
  endfacet
  facet normal 0.147868 0.989007 0
    outer loop
       vertex 0.782852 0.151356 1.249e-15
       vertex 0.875534 0.137499 1
       vertex 0.875534 0.137499 1.249e-15
    endloop
  endfacet
  facet normal 0.147868 0.989007 -0
    outer loop
       vertex 0.782852 0.151356 1.249e-15
       vertex 0.782852 0.151356 1
       vertex 0.875534 0.137499 1
    endloop
  endfacet
  facet normal -0.243756 0.969837 0
    outer loop
       vertex 0.307109 0.15277 1
       vertex 0.307109 0.15277 0
       vertex 0.266896 0.142663 0
    endloop
  endfacet
  facet normal -0.243756 0.969837 0
    outer loop
       vertex 0.266896 0.142663 1
       vertex 0.307109 0.15277 1
       vertex 0.266896 0.142663 0
    endloop
  endfacet
  facet normal 0.11279 0.993619 0
    outer loop
       vertex 0.696731 0.161132 1.38778e-15
       vertex 0.782852 0.151356 1
       vertex 0.782852 0.151356 1.249e-15
    endloop
  endfacet
  facet normal 0.11279 0.993619 -0
    outer loop
       vertex 0.696731 0.161132 1.38778e-15
       vertex 0.696731 0.161132 1
       vertex 0.782852 0.151356 1
    endloop
  endfacet
  facet normal -0.208088 0.97811 0
    outer loop
       vertex 0.30929 0.153234 1
       vertex 0.30929 0.153234 1.249e-15
       vertex 0.307109 0.15277 0
    endloop
  endfacet
  facet normal -0.208088 0.97811 0
    outer loop
       vertex 0.307109 0.15277 1
       vertex 0.30929 0.153234 1
       vertex 0.307109 0.15277 0
    endloop
  endfacet
  facet normal -0.168416 0.985716 0
    outer loop
       vertex 0.359853 0.161873 1
       vertex 0.359853 0.161873 0
       vertex 0.30929 0.153234 1.249e-15
    endloop
  endfacet
  facet normal -0.168416 0.985716 0
    outer loop
       vertex 0.30929 0.153234 1
       vertex 0.359853 0.161873 1
       vertex 0.30929 0.153234 1.249e-15
    endloop
  endfacet
  facet normal 0.0753285 0.997159 0
    outer loop
       vertex 0.615519 0.167267 0
       vertex 0.696731 0.161132 1
       vertex 0.696731 0.161132 1.38778e-15
    endloop
  endfacet
  facet normal 0.0753285 0.997159 -0
    outer loop
       vertex 0.615519 0.167267 0
       vertex 0.615519 0.167267 1
       vertex 0.696731 0.161132 1
    endloop
  endfacet
  facet normal -0.0960657 0.995375 0
    outer loop
       vertex 0.40679 0.166403 1
       vertex 0.40679 0.166403 0
       vertex 0.359853 0.161873 0
    endloop
  endfacet
  facet normal -0.0960657 0.995375 0
    outer loop
       vertex 0.359853 0.161873 1
       vertex 0.40679 0.166403 1
       vertex 0.359853 0.161873 0
    endloop
  endfacet
  facet normal -0.0447355 0.998999 0
    outer loop
       vertex 0.464896 0.169005 1
       vertex 0.464896 0.169005 1.249e-15
       vertex 0.40679 0.166403 0
    endloop
  endfacet
  facet normal -0.0447355 0.998999 0
    outer loop
       vertex 0.40679 0.166403 1
       vertex 0.464896 0.169005 1
       vertex 0.40679 0.166403 0
    endloop
  endfacet
  facet normal 0.0339998 0.999422 0
    outer loop
       vertex 0.542032 0.169767 1.249e-15
       vertex 0.615519 0.167267 1
       vertex 0.615519 0.167267 0
    endloop
  endfacet
  facet normal 0.0339998 0.999422 -0
    outer loop
       vertex 0.542032 0.169767 1.249e-15
       vertex 0.542032 0.169767 1
       vertex 0.615519 0.167267 1
    endloop
  endfacet
  facet normal -0.00987804 0.999951 0
    outer loop
       vertex 0.542032 0.169767 1
       vertex 0.542032 0.169767 1.249e-15
       vertex 0.464896 0.169005 1.249e-15
    endloop
  endfacet
  facet normal -0.00987804 0.999951 0
    outer loop
       vertex 0.464896 0.169005 1
       vertex 0.542032 0.169767 1
       vertex 0.464896 0.169005 1.249e-15
    endloop
  endfacet
endsolid zone0
